<mxfile host="app.diagrams.net" modified="2023-09-27T03:42:20.978Z" agent="Mozilla/5.0 (X11; Ubuntu; Linux x86_64; rv:109.0) Gecko/20100101 Firefox/117.0" etag="gcre_oYlnBo2jYGlf-h_" version="21.7.5" type="device">
  <diagram name="Page-1" id="7ydT2si1OU-SPb69JEy2">
    <mxGraphModel dx="1364" dy="795" grid="1" gridSize="10" guides="1" tooltips="1" connect="1" arrows="1" fold="1" page="1" pageScale="1" pageWidth="827" pageHeight="1169" math="0" shadow="0">
      <root>
        <mxCell id="0" />
        <mxCell id="1" parent="0" />
        <mxCell id="wjXvPFl_49P0tF8V7WdN-1" value="" style="ellipse;shape=cloud;whiteSpace=wrap;html=1;verticalAlign=middle;labelPosition=center;verticalLabelPosition=top;align=center;fillColor=#dae8fc;strokeColor=#6c8ebf;fillStyle=hatch;" vertex="1" parent="1">
          <mxGeometry x="19" y="130" width="580" height="430" as="geometry" />
        </mxCell>
        <mxCell id="wjXvPFl_49P0tF8V7WdN-2" value="Tweet&lt;br&gt;database" style="shape=cylinder3;whiteSpace=wrap;html=1;boundedLbl=1;backgroundOutline=1;size=15;fillColor=#e1d5e7;strokeColor=#9673a6;" vertex="1" parent="1">
          <mxGeometry x="139" y="315" width="60" height="80" as="geometry" />
        </mxCell>
        <mxCell id="wjXvPFl_49P0tF8V7WdN-3" value="Virtual machine" style="rounded=1;whiteSpace=wrap;html=1;labelPosition=center;verticalLabelPosition=middle;align=center;verticalAlign=top;fillColor=#f5f5f5;fontColor=#333333;strokeColor=#666666;" vertex="1" parent="1">
          <mxGeometry x="219" y="260" width="240" height="190" as="geometry" />
        </mxCell>
        <mxCell id="wjXvPFl_49P0tF8V7WdN-4" value="Scripts and&lt;br&gt;documents" style="shape=note;whiteSpace=wrap;html=1;backgroundOutline=1;darkOpacity=0.05;" vertex="1" parent="1">
          <mxGeometry x="239" y="340" width="80" height="96" as="geometry" />
        </mxCell>
        <mxCell id="wjXvPFl_49P0tF8V7WdN-5" value="RStudio Server" style="shape=parallelogram;perimeter=parallelogramPerimeter;whiteSpace=wrap;html=1;fixedSize=1;fillColor=#e1d5e7;strokeColor=#9673a6;" vertex="1" parent="1">
          <mxGeometry x="319" y="290" width="120" height="60" as="geometry" />
        </mxCell>
        <mxCell id="wjXvPFl_49P0tF8V7WdN-6" value="File syncing" style="verticalLabelPosition=middle;verticalAlign=middle;html=1;shape=mxgraph.basic.diag_round_rect;dx=6;whiteSpace=wrap;horizontal=1;labelPosition=center;align=center;" vertex="1" parent="1">
          <mxGeometry x="339" y="374" width="100" height="60" as="geometry" />
        </mxCell>
        <mxCell id="wjXvPFl_49P0tF8V7WdN-7" value="" style="curved=1;endArrow=classic;html=1;rounded=0;exitX=1;exitY=0.5;exitDx=0;exitDy=0;exitPerimeter=0;entryX=0;entryY=0.25;entryDx=0;entryDy=0;endFill=1;startArrow=classic;startFill=1;" edge="1" parent="1" source="wjXvPFl_49P0tF8V7WdN-2" target="wjXvPFl_49P0tF8V7WdN-5">
          <mxGeometry width="50" height="50" relative="1" as="geometry">
            <mxPoint x="209" y="360" as="sourcePoint" />
            <mxPoint x="259" y="310" as="targetPoint" />
            <Array as="points">
              <mxPoint x="229" y="340" />
              <mxPoint x="249" y="310" />
            </Array>
          </mxGeometry>
        </mxCell>
        <mxCell id="wjXvPFl_49P0tF8V7WdN-8" value="Researcher&#39;s computer" style="rounded=1;whiteSpace=wrap;html=1;verticalAlign=top;fillColor=#f5f5f5;strokeColor=#666666;fontColor=#333333;" vertex="1" parent="1">
          <mxGeometry x="589" y="190" width="210" height="160" as="geometry" />
        </mxCell>
        <mxCell id="wjXvPFl_49P0tF8V7WdN-9" value="RStudio session" style="rounded=0;whiteSpace=wrap;html=1;fillColor=#e1d5e7;strokeColor=#9673a6;" vertex="1" parent="1">
          <mxGeometry x="619" y="230" width="150" height="90" as="geometry" />
        </mxCell>
        <mxCell id="wjXvPFl_49P0tF8V7WdN-10" value="" style="endArrow=classic;startArrow=classic;html=1;rounded=0;entryX=0;entryY=0.5;entryDx=0;entryDy=0;exitX=1;exitY=0.25;exitDx=0;exitDy=0;" edge="1" parent="1" source="wjXvPFl_49P0tF8V7WdN-5" target="wjXvPFl_49P0tF8V7WdN-9">
          <mxGeometry width="50" height="50" relative="1" as="geometry">
            <mxPoint x="419" y="320" as="sourcePoint" />
            <mxPoint x="469" y="270" as="targetPoint" />
          </mxGeometry>
        </mxCell>
        <mxCell id="wjXvPFl_49P0tF8V7WdN-11" value="Nectar Research Cloud" style="text;html=1;strokeColor=none;fillColor=none;align=center;verticalAlign=middle;whiteSpace=wrap;rounded=0;" vertex="1" parent="1">
          <mxGeometry x="239" y="200" width="60" height="30" as="geometry" />
        </mxCell>
        <mxCell id="wjXvPFl_49P0tF8V7WdN-12" value="Researcher&#39;s computer" style="rounded=1;whiteSpace=wrap;html=1;verticalAlign=top;fillColor=#f5f5f5;strokeColor=#666666;fontColor=#333333;" vertex="1" parent="1">
          <mxGeometry x="599" y="374" width="210" height="160" as="geometry" />
        </mxCell>
        <mxCell id="wjXvPFl_49P0tF8V7WdN-13" value="RStudio session" style="rounded=0;whiteSpace=wrap;html=1;fillColor=#e1d5e7;strokeColor=#9673a6;" vertex="1" parent="1">
          <mxGeometry x="629" y="414" width="150" height="90" as="geometry" />
        </mxCell>
        <mxCell id="wjXvPFl_49P0tF8V7WdN-14" value="" style="endArrow=classic;startArrow=classic;html=1;rounded=0;entryX=0;entryY=0.5;entryDx=0;entryDy=0;exitX=1;exitY=0.75;exitDx=0;exitDy=0;" edge="1" parent="1" source="wjXvPFl_49P0tF8V7WdN-5" target="wjXvPFl_49P0tF8V7WdN-13">
          <mxGeometry width="50" height="50" relative="1" as="geometry">
            <mxPoint x="444" y="316" as="sourcePoint" />
            <mxPoint x="629" y="285" as="targetPoint" />
          </mxGeometry>
        </mxCell>
      </root>
    </mxGraphModel>
  </diagram>
</mxfile>
